<?xml version="1.0" encoding="utf-8"?>
<!-- Generator: Adobe Illustrator 23.0.1, SVG Export Plug-In . SVG Version: 6.00 Build 0)  -->
<svg version="1.1" id="Layer_1" xmlns="http://www.w3.org/2000/svg" xmlns:xlink="http://www.w3.org/1999/xlink" x="0px" y="0px"
	 viewBox="0 0 60 60" style="enable-background:new 0 0 60 60;" xml:space="preserve">
<style type="text/css">
	.st0{fill:#FFFFFF;}
	.st1{fill:#E4CC5F;}
</style>
<circle class="st0" cx="30" cy="30" r="30"/>
<path class="st1" d="M16.14,28.19c5.26-0.3,10.32,0.76,12.66,1.34c0.71,0.18,1.4-0.32,1.46-1.05l1.47-17.93
	c0.09-1.14-1.32-1.73-2.07-0.88L15.19,26.24C14.5,27.02,15.1,28.25,16.14,28.19z"/>
<path class="st1" d="M45.44,30.64c-4.48-1-8.99-0.82-11.09-0.65c-0.63,0.05-1.16-0.48-1.11-1.11l1.29-15.64
	c0.08-0.99,1.38-1.3,1.9-0.46l10.1,16.32C47.02,29.87,46.33,30.84,45.44,30.64z"/>
<g>
	<path class="st1" d="M41.66,50.73c-1.44,0-2.21-0.65-2.82-1.18c-0.55-0.48-0.96-0.82-1.85-0.82c-0.89,0-1.29,0.34-1.84,0.82
		c-0.61,0.53-1.38,1.18-2.82,1.18c-1.44,0-2.21-0.65-2.82-1.18c-0.55-0.48-0.96-0.82-1.84-0.82c-0.89,0-1.29,0.34-1.84,0.82
		c-0.61,0.53-1.38,1.18-2.82,1.18s-2.21-0.65-2.82-1.18c-0.55-0.48-0.96-0.82-1.84-0.82c-0.41,0-0.75-0.34-0.75-0.75
		s0.34-0.75,0.75-0.75c1.44,0,2.21,0.65,2.82,1.18c0.55,0.48,0.96,0.82,1.84,0.82s1.29-0.34,1.84-0.82
		c0.61-0.53,1.38-1.18,2.82-1.18c1.44,0,2.21,0.65,2.82,1.18c0.55,0.48,0.96,0.82,1.84,0.82s1.29-0.34,1.84-0.82
		c0.61-0.53,1.38-1.18,2.82-1.18c1.45,0,2.21,0.65,2.82,1.18c0.55,0.48,0.96,0.82,1.85,0.82c0.41,0,0.75,0.34,0.75,0.75
		S42.07,50.73,41.66,50.73z"/>
</g>
<g>
	<path class="st1" d="M13.42,37.81c0.64,1.28,1.62,2.32,2.79,3.05c0.51-0.35,1.17-0.63,2.12-0.63c1.44,0,2.21,0.65,2.82,1.18
		c0.27,0.23,0.5,0.43,0.77,0.57h2.15c0.27-0.14,0.5-0.34,0.77-0.57c0.61-0.53,1.38-1.18,2.82-1.18c1.44,0,2.21,0.65,2.82,1.18
		c0.27,0.23,0.5,0.43,0.77,0.57h2.15c0.27-0.14,0.5-0.34,0.77-0.57c0.61-0.53,1.38-1.18,2.82-1.18c1.45,0,2.21,0.65,2.82,1.18
		c0.27,0.23,0.5,0.43,0.77,0.57h1.04c0.44,0,0.87-0.04,1.29-0.11c0.2-0.13,0.39-0.28,0.6-0.46c0.61-0.53,1.38-1.18,2.82-1.18
		c0.03,0,0.06,0,0.09,0.01c1.2-1,2.11-2.36,2.51-3.96l0.84-1.76c0.35-0.74-0.15-1.6-0.96-1.66l-37.27-2.73
		c-0.9-0.07-1.52,0.87-1.12,1.67L13.42,37.81z"/>
</g>
<g>
	<path class="st1" d="M51,46.73c-1.45,0-2.21-0.65-2.82-1.18c-0.56-0.48-0.96-0.82-1.85-0.82s-1.29,0.34-1.85,0.82
		c-0.61,0.53-1.38,1.18-2.82,1.18c-1.44,0-2.21-0.65-2.82-1.18c-0.55-0.48-0.96-0.82-1.85-0.82c-0.89,0-1.29,0.34-1.84,0.82
		c-0.61,0.53-1.38,1.18-2.82,1.18c-1.44,0-2.21-0.65-2.82-1.18c-0.55-0.48-0.96-0.82-1.84-0.82c-0.89,0-1.29,0.34-1.84,0.82
		c-0.61,0.53-1.38,1.18-2.82,1.18s-2.21-0.65-2.82-1.18c-0.55-0.48-0.96-0.82-1.84-0.82c-0.89,0-1.29,0.34-1.84,0.82
		c-0.61,0.53-1.38,1.18-2.82,1.18c-1.44,0-2.21-0.65-2.82-1.18c-0.55-0.48-0.96-0.82-1.84-0.82c-0.41,0-0.75-0.34-0.75-0.75
		S8.59,43.23,9,43.23c1.44,0,2.21,0.65,2.82,1.18c0.55,0.48,0.96,0.82,1.84,0.82c0.89,0,1.29-0.34,1.84-0.82
		c0.61-0.53,1.38-1.18,2.82-1.18s2.21,0.65,2.82,1.18c0.55,0.48,0.96,0.82,1.84,0.82s1.29-0.34,1.84-0.82
		c0.61-0.53,1.38-1.18,2.82-1.18c1.44,0,2.21,0.65,2.82,1.18c0.55,0.48,0.96,0.82,1.84,0.82s1.29-0.34,1.84-0.82
		c0.61-0.53,1.38-1.18,2.82-1.18c1.45,0,2.21,0.65,2.82,1.18c0.55,0.48,0.96,0.82,1.85,0.82c0.89,0,1.29-0.34,1.85-0.82
		c0.61-0.53,1.38-1.18,2.82-1.18s2.21,0.65,2.82,1.18c0.56,0.48,0.96,0.82,1.85,0.82c0.41,0,0.75,0.34,0.75,0.75
		S51.41,46.73,51,46.73z"/>
</g>
<g>
	<path class="st1" d="M51,42.73c-1.45,0-2.21-0.65-2.82-1.18c-0.56-0.48-0.96-0.82-1.85-0.82s-1.29,0.34-1.85,0.82
		c-0.61,0.53-1.38,1.18-2.82,1.18c-1.44,0-2.21-0.65-2.82-1.18c-0.55-0.48-0.96-0.82-1.85-0.82c-0.89,0-1.29,0.34-1.84,0.82
		c-0.61,0.53-1.38,1.18-2.82,1.18c-1.44,0-2.21-0.65-2.82-1.18c-0.55-0.48-0.96-0.82-1.84-0.82c-0.89,0-1.29,0.34-1.84,0.82
		c-0.61,0.53-1.38,1.18-2.82,1.18s-2.21-0.65-2.82-1.18c-0.55-0.48-0.96-0.82-1.84-0.82c-0.89,0-1.29,0.34-1.84,0.82
		c-0.61,0.53-1.38,1.18-2.82,1.18c-1.44,0-2.21-0.65-2.82-1.18c-0.55-0.48-0.96-0.82-1.84-0.82c-0.41,0-0.75-0.34-0.75-0.75
		S8.59,39.23,9,39.23c1.44,0,2.21,0.65,2.82,1.18c0.55,0.48,0.96,0.82,1.84,0.82c0.89,0,1.29-0.34,1.84-0.82
		c0.61-0.53,1.38-1.18,2.82-1.18s2.21,0.65,2.82,1.18c0.55,0.48,0.96,0.82,1.84,0.82s1.29-0.34,1.84-0.82
		c0.61-0.53,1.38-1.18,2.82-1.18c1.44,0,2.21,0.65,2.82,1.18c0.55,0.48,0.96,0.82,1.84,0.82s1.29-0.34,1.84-0.82
		c0.61-0.53,1.38-1.18,2.82-1.18c1.45,0,2.21,0.65,2.82,1.18c0.55,0.48,0.96,0.82,1.85,0.82c0.89,0,1.29-0.34,1.85-0.82
		c0.61-0.53,1.38-1.18,2.82-1.18s2.21,0.65,2.82,1.18c0.56,0.48,0.96,0.82,1.85,0.82c0.41,0,0.75,0.34,0.75,0.75
		S51.41,42.73,51,42.73z"/>
</g>
</svg>
