<?xml version="1.0" encoding="utf-8"?>
<!-- Generator: Adobe Illustrator 23.0.1, SVG Export Plug-In . SVG Version: 6.00 Build 0)  -->
<svg version="1.1" id="Layer_1" xmlns="http://www.w3.org/2000/svg" xmlns:xlink="http://www.w3.org/1999/xlink" x="0px" y="0px"
	 viewBox="0 0 60 60" style="enable-background:new 0 0 60 60;" xml:space="preserve">
<style type="text/css">
	.st0{fill:#FFFFFF;}
</style>
<g>
	<path class="st0" d="M29.99,38.07c-1.71,3.52-3.34,6.91-5,10.28c-0.75,1.52-1.97,2.01-3.26,1.41c-1.34-0.62-1.74-1.95-1-3.52
		c1.52-3.18,2.98-6.39,4.62-9.5c1.41-2.67,1.47-5.5,1.25-8.35c-0.04-0.57-0.9-1.34-1.53-1.55c-2.62-0.86-5.3-1.53-7.95-2.28
		c-0.37-0.1-0.74-0.19-1.1-0.31c-1.41-0.48-2.13-1.61-1.8-2.81c0.37-1.38,1.62-2.1,3.13-1.71c2.12,0.55,4.22,1.17,6.32,1.77
		c0.14,0.04,0.28,0.08,0.41,0.14c4.83,2.25,9.48,0.85,14.14-0.64c1.36-0.43,2.74-0.79,4.12-1.17c1.74-0.47,3.01,0.13,3.42,1.6
		c0.36,1.3-0.39,2.4-2.06,2.88c-2.79,0.81-5.58,1.6-8.39,2.32c-1.42,0.36-1.98,1.1-2.04,2.61c-0.13,3.14,0.53,6.02,2,8.79
		c1.41,2.65,2.64,5.39,3.93,8.09c0.81,1.7,0.47,2.99-0.93,3.64c-1.33,0.62-2.5,0.09-3.31-1.54C33.31,44.88,31.7,41.55,29.99,38.07z"
		/>
	<path class="st0" d="M34.43,14.43c0.01,2.35-1.99,4.37-4.35,4.4c-2.44,0.04-4.51-1.98-4.51-4.39c0-2.33,2.01-4.38,4.35-4.44
		C32.27,9.94,34.42,12.05,34.43,14.43z"/>
</g>
</svg>
