<?xml version="1.0" encoding="utf-8"?>
<!-- Generator: Adobe Illustrator 23.0.1, SVG Export Plug-In . SVG Version: 6.00 Build 0)  -->
<svg version="1.1" id="Layer_1" xmlns="http://www.w3.org/2000/svg" xmlns:xlink="http://www.w3.org/1999/xlink" x="0px" y="0px"
	 viewBox="0 0 60 60" style="enable-background:new 0 0 60 60;" xml:space="preserve">
<style type="text/css">
	.st0{fill:#FFFFFF;}
	.st1{fill:#E4CC5F;}
</style>
<circle class="st0" cx="30" cy="30" r="30"/>
<g>
	<path class="st1" d="M53.89,34.27h-0.44v-3.36c0-1.06-0.86-1.92-1.92-1.92l-7.24-2.04c-0.72,0-1.38-0.4-1.71-1.04l-3.38-6.56
		c-0.33-0.64-0.99-1.04-1.71-1.04H25.18c-0.9,0-1.68,0.63-1.88,1.51l-1.25,5.63c-0.2,0.88-0.98,1.51-1.88,1.51h-1.66
		c-1.06,0-1.92,0.86-1.92,1.92l0.64,5.4H17.2c-0.53,0-0.96,0.43-0.96,0.96v0.4c0,0.53,0.43,0.96,0.96,0.96h0.42
		c0.32,0.62,0.96,1.05,1.71,1.05h0.86c0,2.12,1.72,3.84,3.84,3.84s3.84-1.72,3.84-3.84h14.48c0,2.12,1.72,3.84,3.84,3.84
		s3.84-1.72,3.84-3.84h1.52c0.75,0,1.39-0.43,1.71-1.05h0.65c0.53,0,0.96-0.43,0.96-0.96v-0.4C54.85,34.7,54.42,34.27,53.89,34.27z"
		/>
	<path class="st0" d="M31.14,25.98c0,0.55,0.45,1,1,1h8.45c0.47,0,0.45-0.61,0.39-0.73l-2.91-5.64c-0.23-0.45-0.69-0.73-1.2-0.73
		h-4.73c-0.55,0-1,0.45-1,1V25.98z"/>
	<path class="st0" d="M28.26,19.88h-2.28c-0.63,0-1.18,0.44-1.32,1.06l-1.08,4.85c-0.07,0.33-0.15,0.64-0.01,0.93
		C23.66,26.9,23.86,27,24.06,27h4.18c0.55,0,1-0.45,1-1v-5.1C29.26,20.33,28.81,19.88,28.26,19.88z"/>
	<circle class="st0" cx="24.02" cy="37.64" r="2.26"/>
	<circle class="st1" cx="19.39" cy="40.91" r="0.79"/>
	<circle class="st1" cx="16.49" cy="38.92" r="1.54"/>
	<circle class="st1" cx="13.42" cy="40.46" r="0.95"/>
	<circle class="st0" cx="46.17" cy="37.64" r="2.26"/>
	<ellipse class="st0" cx="52.38" cy="31.72" rx="0.5" ry="1.34"/>
	<g>
		<path class="st1" d="M14.32,33.6c-0.98,0-1.49-0.57-1.87-0.98c-0.35-0.39-0.56-0.59-0.99-0.59c-0.43,0-0.64,0.2-0.99,0.59
			c-0.38,0.41-0.89,0.98-1.87,0.98s-1.49-0.57-1.87-0.98c-0.35-0.39-0.56-0.59-0.99-0.59c-0.33,0-0.59-0.26-0.59-0.59
			s0.26-0.59,0.59-0.59c0.98,0,1.49,0.57,1.87,0.98c0.35,0.39,0.56,0.59,0.99,0.59c0.43,0,0.64-0.2,0.99-0.59
			c0.38-0.41,0.89-0.98,1.87-0.98s1.49,0.57,1.87,0.98c0.35,0.39,0.56,0.59,0.99,0.59c0.33,0,0.59,0.26,0.59,0.59
			S14.64,33.6,14.32,33.6z"/>
	</g>
	<g>
		<path class="st1" d="M15.3,30.11c-0.98,0-1.49-0.57-1.87-0.98c-0.35-0.39-0.56-0.59-0.99-0.59s-0.64,0.2-0.99,0.59
			c-0.38,0.41-0.89,0.98-1.87,0.98s-1.49-0.57-1.87-0.98c-0.35-0.39-0.56-0.59-0.99-0.59c-0.33,0-0.59-0.26-0.59-0.59
			s0.26-0.59,0.59-0.59c0.98,0,1.49,0.57,1.87,0.98c0.35,0.39,0.56,0.59,0.99,0.59c0.43,0,0.64-0.2,0.99-0.59
			c0.38-0.41,0.89-0.98,1.87-0.98s1.49,0.57,1.87,0.98c0.35,0.39,0.56,0.59,0.99,0.59c0.33,0,0.59,0.26,0.59,0.59
			S15.62,30.11,15.3,30.11z"/>
	</g>
</g>
</svg>
