<?xml version="1.0" encoding="utf-8"?>
<!-- Generator: Adobe Illustrator 23.0.1, SVG Export Plug-In . SVG Version: 6.00 Build 0)  -->
<svg version="1.1" id="Layer_1" xmlns="http://www.w3.org/2000/svg" xmlns:xlink="http://www.w3.org/1999/xlink" x="0px" y="0px"
	 viewBox="0 0 60 60" style="enable-background:new 0 0 60 60;" xml:space="preserve">
<style type="text/css">
	.st0{fill:#FDFDFE;}
</style>
<g>
	<path class="st0" d="M39.63,18.5c-4.04,0-7.58,2.08-9.63,5.23c-2.05-3.15-5.6-5.23-9.63-5.23c-6.35,0-11.5,5.15-11.5,11.5
		s5.15,11.5,11.5,11.5c4.04,0,7.58-2.08,9.63-5.23c2.05,3.15,5.6,5.23,9.63,5.23c6.35,0,11.5-5.15,11.5-11.5S45.98,18.5,39.63,18.5z
		 M19.28,32.01c0.47,0.5,1.1,0.75,1.88,0.75c0.93,0,1.73-0.43,2.42-1.29l2.35,2.1c-0.55,0.72-1.24,1.26-2.08,1.64
		c-0.84,0.38-1.8,0.57-2.87,0.57c-1.17,0-2.22-0.25-3.16-0.74c-0.94-0.49-1.67-1.17-2.2-2.05c-0.53-0.88-0.8-1.88-0.8-2.99
		c0-1.12,0.27-2.11,0.8-2.99c0.53-0.88,1.27-1.56,2.2-2.05c0.94-0.49,1.99-0.73,3.16-0.73c1.07,0,2.03,0.19,2.87,0.57
		c0.84,0.38,1.54,0.93,2.08,1.64l-2.35,2.1c-0.68-0.86-1.49-1.29-2.42-1.29c-0.78,0-1.41,0.25-1.88,0.75
		c-0.47,0.5-0.71,1.17-0.71,2.01C18.57,30.84,18.8,31.51,19.28,32.01z M39.63,38.87c-3.74,0-6.94-2.33-8.24-5.61
		c0.3-1.03,0.48-2.12,0.48-3.26s-0.17-2.22-0.48-3.26c1.3-3.28,4.5-5.61,8.24-5.61c4.89,0,8.87,3.98,8.87,8.87
		S44.52,38.87,39.63,38.87z"/>
	<path class="st0" d="M40.42,27.24c0.93,0,1.73,0.43,2.42,1.29l2.35-2.1c-0.55-0.72-1.24-1.26-2.08-1.64
		c-0.84-0.38-1.8-0.57-2.87-0.57c-1.17,0-2.22,0.24-3.16,0.73c-0.94,0.49-1.67,1.17-2.2,2.05c-0.53,0.88-0.8,1.88-0.8,2.99
		c0,1.12,0.27,2.11,0.8,2.99c0.53,0.88,1.27,1.56,2.2,2.05c0.94,0.49,1.99,0.74,3.16,0.74c1.07,0,2.03-0.19,2.87-0.57
		c0.84-0.38,1.54-0.93,2.08-1.64l-2.35-2.1c-0.68,0.86-1.49,1.29-2.42,1.29c-0.78,0-1.41-0.25-1.88-0.75
		c-0.47-0.5-0.71-1.17-0.71-2.01c0-0.84,0.24-1.51,0.71-2.01C39.02,27.49,39.64,27.24,40.42,27.24z"/>
</g>
</svg>
