<?xml version="1.0" encoding="utf-8"?>
<!-- Generator: Adobe Illustrator 23.0.1, SVG Export Plug-In . SVG Version: 6.00 Build 0)  -->
<svg version="1.1" id="Layer_1" xmlns="http://www.w3.org/2000/svg" xmlns:xlink="http://www.w3.org/1999/xlink" x="0px" y="0px"
	 viewBox="0 0 60 60" style="enable-background:new 0 0 60 60;" xml:space="preserve">
<style type="text/css">
	.st0{fill:#FDFDFE;}
</style>
<g>
	<path class="st0" d="M30,17.9c4.56,0,9.13,0.01,13.69-0.01c0.48,0,0.6,0.12,0.56,0.59c-0.38,3.88-0.74,7.75-1.1,11.63
		c-0.32,3.5-0.64,7.01-0.96,10.51c-0.18,1.94-0.36,3.88-0.53,5.82c-0.03,0.32-0.12,0.51-0.47,0.6c-3.61,0.95-7.22,1.92-10.83,2.9
		c-0.26,0.07-0.49,0.07-0.75,0c-3.61-0.98-7.22-1.94-10.83-2.9c-0.31-0.08-0.43-0.24-0.46-0.55c-0.24-2.74-0.49-5.48-0.75-8.22
		c-0.29-3.16-0.59-6.33-0.88-9.49c-0.25-2.76-0.51-5.51-0.76-8.27c-0.06-0.65-0.12-1.29-0.19-1.94c-0.06-0.68-0.06-0.68,0.6-0.68
		C20.91,17.9,25.46,17.9,30,17.9z M30.17,27.24c0.01,0.03,0.01,0.06,0.02,0.08c-0.12,0.05-0.23,0.1-0.35,0.15
		c-2.52,1.06-5.03,2.13-7.55,3.18c-0.38,0.16-0.56,0.32-0.51,0.77c0.1,0.81,0.15,1.63,0.16,2.45c0.01,0.47,0.18,0.55,0.61,0.55
		c3.76-0.02,7.52,0,11.28-0.02c0.37,0,0.51,0.08,0.48,0.48c-0.1,1.24-0.17,2.49-0.24,3.73c-0.01,0.28-0.11,0.42-0.38,0.5
		c-1.11,0.32-2.22,0.66-3.33,1c-0.19,0.06-0.36,0.07-0.55,0.01c-1.13-0.31-2.27-0.63-3.41-0.93c-0.28-0.07-0.38-0.2-0.39-0.49
		c-0.03-0.65-0.1-1.29-0.13-1.94c-0.02-0.3-0.12-0.44-0.46-0.43c-0.87,0.03-1.74,0.04-2.61,0c-0.47-0.02-0.53,0.16-0.49,0.56
		c0.15,1.51,0.28,3.03,0.39,4.54c0.02,0.33,0.19,0.39,0.43,0.46c2.18,0.63,4.36,1.26,6.54,1.9c0.18,0.05,0.35,0.09,0.55,0.03
		c2.28-0.64,4.57-1.28,6.86-1.9c0.21-0.06,0.3-0.15,0.32-0.38c0.27-3.39,0.54-6.78,0.84-10.16c0.04-0.44-0.1-0.51-0.49-0.5
		c-2.36,0.01-4.72,0.01-7.08,0c-0.16,0-0.33,0.07-0.52-0.07c0.14-0.06,0.26-0.12,0.38-0.17c2.56-1.09,5.12-2.17,7.68-3.26
		c0.18-0.08,0.4-0.09,0.41-0.38c0.06-0.97,0.13-1.94,0.21-2.91c0.02-0.28-0.05-0.38-0.35-0.38c-5.73,0.02-11.45,0.03-17.18,0.03
		c-0.31,0-0.37,0.1-0.33,0.38c0.14,0.84,0.31,1.68,0.36,2.53c0.04,0.57,0.28,0.63,0.76,0.63c2.53-0.03,5.06-0.03,7.59-0.04
		C29.85,27.24,30.01,27.24,30.17,27.24z"/>
	<path class="st0" d="M30.54,11.89c0.42,0.44,0.76,0.85,1.16,1.19c0.43,0.36,0.58,0.77,0.55,1.33c-0.05,0.94-0.01,0.94-0.95,0.94
		c-1.02,0-2.05-0.01-3.07,0.01c-0.31,0.01-0.41-0.08-0.41-0.4c-0.03-1.33-0.04-1.33,1.3-1.34c0.1,0,0.2,0,0.4-0.12
		c-0.39-0.36-0.76-0.74-1.18-1.07c-0.41-0.33-0.54-0.71-0.52-1.24c0.04-1.17,0.01-1.17,1.17-1.17c0.94,0,1.88,0.01,2.82-0.01
		c0.32-0.01,0.47,0.07,0.44,0.42c-0.04,0.46,0.14,1.04-0.08,1.34c-0.24,0.33-0.86,0.07-1.31,0.12
		C30.77,11.89,30.69,11.89,30.54,11.89z"/>
	<path class="st0" d="M36.75,11.9c0.42,0.42,0.74,0.79,1.11,1.1c0.49,0.4,0.69,0.86,0.64,1.5c-0.06,0.85-0.02,0.85-0.88,0.85
		c-1.04,0-2.09-0.01-3.13,0.01c-0.3,0-0.42-0.06-0.42-0.39c-0.03-1.34-0.04-1.34,1.3-1.35c0.1,0,0.2,0,0.37,0
		c-0.35-0.48-0.75-0.84-1.15-1.19c-0.4-0.34-0.54-0.72-0.52-1.24c0.04-1.17,0.01-1.17,1.18-1.17c0.94,0,1.88,0.01,2.82-0.01
		c0.34-0.01,0.46,0.1,0.43,0.44c-0.04,0.46,0.18,1.03-0.09,1.34c-0.26,0.3-0.84,0.07-1.28,0.1C37.04,11.89,36.94,11.89,36.75,11.9z"
		/>
	<path class="st0" d="M21.51,12.67c0-0.75,0.01-1.5-0.01-2.25C21.5,10.12,21.56,10,21.89,10c1.21,0.02,2.42,0.02,3.64,0
		c0.33,0,0.39,0.12,0.4,0.42c0.03,1.46,0.04,1.46-1.4,1.46c-1.11,0-1.08,0-1.13,1.12c-0.02,0.54,0.15,0.67,0.65,0.62
		c0.49-0.04,0.99,0,1.48-0.01c0.28-0.01,0.38,0.07,0.39,0.37c0.05,1.37,0.06,1.37-1.33,1.37c-0.9,0-1.81-0.01-2.71,0.01
		c-0.29,0-0.39-0.08-0.38-0.38C21.52,14.21,21.51,13.44,21.51,12.67z"/>
</g>
</svg>
