<?xml version="1.0" encoding="utf-8"?>
<!-- Generator: Adobe Illustrator 23.0.1, SVG Export Plug-In . SVG Version: 6.00 Build 0)  -->
<svg version="1.1" id="Layer_1" xmlns="http://www.w3.org/2000/svg" xmlns:xlink="http://www.w3.org/1999/xlink" x="0px" y="0px"
	 viewBox="0 0 60 60" style="enable-background:new 0 0 60 60;" xml:space="preserve">
<style type="text/css">
	.st0{fill:#FFFFFF;}
</style>
<path class="st0" d="M45.14,15.86c-0.02-1.09,0.13-2.19,0-3.27c-0.32-2.63-0.86-3.16-3.09-1.87c-3.14,1.81-6.26,2.13-9.66,1.4
	c-0.53-0.11-1.11-0.11-1.64-0.01c-3.57,0.66-6.9,0.47-10.2-1.48c-2.08-1.24-2.62-0.68-3.16,1.77c-0.05,0.24-0.2,0.5-0.15,0.71
	c0.72,3.02-0.94,5.52-1.58,8.27c-1.44,6.15,0.17,14.22,9.57,15.42c0.41,0.05,0.8,0.23,1.23,0.36c-0.3,0.55-0.68,1-0.81,1.51
	c-0.35,1.41-0.98,2.35-2.6,2.54c-1.79,0.21-3.27-0.19-4.45-1.53c-0.52-0.59-0.89-1.3-1.36-1.94c-1.22-1.66-2.64-2.19-4.64-1.55
	c0.43,0.45,0.79,0.78,1.1,1.16c0.85,1.01,1.99,1.92,2.45,3.09c1.33,3.4,4.06,4.64,7.61,4.31c0.36-0.03,0.71-0.09,1.35-0.17
	c0,1.54,0.11,2.98-0.03,4.4c-0.04,0.42-0.15,0.71-0.32,0.92c0.19,0.03,0.37,0.07,0.56,0.09l10.23-0.15
	c0.72-0.13,1.43-0.28,2.14-0.45c-0.11-0.43-0.16-1-0.16-1.75c-0.01-2.07,0.09-4.16-0.08-6.22c-0.11-1.41-0.61-2.79-0.98-4.4
	c0.66-0.16,1.63-0.37,2.59-0.63c5.04-1.37,7.81-4.76,8.24-9.93c0.27-3.18,0.06-6.2-1.97-8.88C45.04,17.18,45.15,16.44,45.14,15.86z"
	/>
</svg>
