<?xml version="1.0" encoding="utf-8"?>
<!-- Generator: Adobe Illustrator 23.0.1, SVG Export Plug-In . SVG Version: 6.00 Build 0)  -->
<svg version="1.1" id="Layer_1" xmlns="http://www.w3.org/2000/svg" xmlns:xlink="http://www.w3.org/1999/xlink" x="0px" y="0px"
	 viewBox="0 0 520 292" style="enable-background:new 0 0 520 292;" xml:space="preserve">
<style type="text/css">
	.st0{fill:#7C7C7C;}
	.st1{fill:#545454;}
	.st2{fill:#A3A3A3;}
	.st3{fill:#C1C1C1;}
	.st4{fill:#E6E6E6;}
	.st5{fill:#FFFFFF;}
	.st6{fill:#666666;}
</style>
<path class="st0" d="M291,42.9c0.3-1.2,0.4-2.5,0.4-3.8c0-9.6-7.8-17.4-17.4-17.4c-8.7,0-15.8,6.4-17.2,14.7
	c-1.3-0.7-2.9-1.1-4.5-1.1c-4.6,0-8.5,3.3-9.4,7.7c-5.2,0.1-9.3,4.4-9.3,9.6c0,5.3,4.3,9.6,9.6,9.6H291c5.3,0,9.6-4.3,9.6-9.6
	C300.5,47.2,296.2,42.9,291,42.9z"/>
<path class="st1" d="M324.2,42.9c0.3-1.2,0.4-2.5,0.4-3.8c0-9.6-7.8-17.4-17.4-17.4c-8.7,0-15.8,6.4-17.2,14.7
	c-1.3-0.7-2.9-1.1-4.5-1.1c-4.6,0-8.5,3.3-9.4,7.7c-5.2,0.1-9.3,4.4-9.3,9.6c0,5.3,4.3,9.6,9.6,9.6h47.7c5.3,0,9.6-4.3,9.6-9.6
	C333.8,47.2,329.5,42.9,324.2,42.9z"/>
<path class="st2" d="M298.9,62.9c0.3-1.2,0.4-2.5,0.4-3.8c0-9.6-7.8-17.4-17.4-17.4c-8.7,0-15.8,6.4-17.2,14.7
	c-1.3-0.7-2.9-1.1-4.5-1.1c-4.6,0-8.5,3.3-9.4,7.7c-5.2,0.1-9.3,4.4-9.3,9.6c0,5.3,4.3,9.6,9.6,9.6h47.7c5.3,0,9.6-4.3,9.6-9.6
	C308.5,67.2,304.2,62.9,298.9,62.9z"/>
<path class="st3" d="M49.2,188.7c-0.1-0.6-0.2-1.3-0.2-1.9c0-4.8,3.9-8.7,8.7-8.7c4.3,0,7.9,3.2,8.6,7.3c0.7-0.4,1.4-0.6,2.2-0.6
	c2.3,0,4.2,1.6,4.7,3.8c2.6,0.1,4.6,2.2,4.6,4.8c0,2.6-2.1,4.8-4.8,4.8H49.2c-2.6,0-4.8-2.1-4.8-4.8S46.6,188.7,49.2,188.7z"/>
<path class="st4" d="M32.6,188.7c-0.1-0.6-0.2-1.3-0.2-1.9c0-4.8,3.9-8.7,8.7-8.7c4.3,0,7.9,3.2,8.6,7.3c0.7-0.4,1.4-0.6,2.2-0.6
	c2.3,0,4.2,1.6,4.7,3.8c2.6,0.1,4.6,2.2,4.6,4.8c0,2.6-2.1,4.8-4.8,4.8H32.6c-2.6,0-4.8-2.1-4.8-4.8S30,188.7,32.6,188.7z"/>
<path class="st5" d="M45.2,198.7c-0.1-0.6-0.2-1.3-0.2-1.9c0-4.8,3.9-8.7,8.7-8.7c4.3,0,7.9,3.2,8.6,7.3c0.7-0.4,1.4-0.6,2.2-0.6
	c2.3,0,4.2,1.6,4.7,3.8c2.6,0.1,4.6,2.2,4.6,4.8c0,2.6-2.1,4.8-4.8,4.8H45.2c-2.6,0-4.8-2.1-4.8-4.8
	C40.4,200.8,42.6,198.7,45.2,198.7z"/>
<path class="st1" d="M373.9,250c-0.1-0.6-0.2-1.3-0.2-1.9c0-4.8,3.9-8.7,8.7-8.7c4.3,0,7.9,3.2,8.6,7.3c0.7-0.4,1.4-0.6,2.2-0.6
	c2.3,0,4.2,1.6,4.7,3.8c2.6,0.1,4.6,2.2,4.6,4.8c0,2.6-2.1,4.8-4.8,4.8h-23.8c-2.6,0-4.8-2.1-4.8-4.8
	C369.1,252.1,371.3,250,373.9,250z"/>
<path class="st6" d="M357.3,250c-0.1-0.6-0.2-1.3-0.2-1.9c0-4.8,3.9-8.7,8.7-8.7c4.3,0,7.9,3.2,8.6,7.3c0.7-0.4,1.4-0.6,2.2-0.6
	c2.3,0,4.2,1.6,4.7,3.8c2.6,0.1,4.6,2.2,4.6,4.8c0,2.6-2.1,4.8-4.8,4.8h-23.8c-2.6,0-4.8-2.1-4.8-4.8
	C352.5,252.1,354.6,250,357.3,250z"/>
<path class="st0" d="M369.9,260c-0.1-0.6-0.2-1.3-0.2-1.9c0-4.8,3.9-8.7,8.7-8.7c4.3,0,7.9,3.2,8.6,7.3c0.7-0.4,1.4-0.6,2.2-0.6
	c2.3,0,4.2,1.6,4.7,3.8c2.6,0.1,4.6,2.2,4.6,4.8c0,2.6-2.1,4.8-4.8,4.8h-23.8c-2.6,0-4.8-2.1-4.8-4.8
	C365.1,262.1,367.3,260,369.9,260z"/>
</svg>
