<?xml version="1.0" encoding="utf-8"?>
<!-- Generator: Adobe Illustrator 23.0.1, SVG Export Plug-In . SVG Version: 6.00 Build 0)  -->
<svg version="1.1" id="Layer_1" xmlns="http://www.w3.org/2000/svg" xmlns:xlink="http://www.w3.org/1999/xlink" x="0px" y="0px"
	 viewBox="0 0 60 60" style="enable-background:new 0 0 60 60;" xml:space="preserve">
<style type="text/css">
	.st0{clip-path:url(#SVGID_2_);}
	.st1{fill:#FFFFFF;}
</style>
<g>
	<g>
		<defs>
			<rect id="SVGID_1_" width="60" height="60"/>
		</defs>
		<clipPath id="SVGID_2_">
			<use xlink:href="#SVGID_1_"  style="overflow:visible;"/>
		</clipPath>
		<g class="st0">
			<path class="st1" d="M29.91,49.83c-2.87-0.82-5.73-1.64-8.6-2.45c-0.7-0.2-1.41-0.41-2.12-0.57c-0.5-0.11-0.7-0.36-0.75-0.89
				c-0.62-7.19-1.27-14.37-1.91-21.56c-0.18-2.07-0.34-4.14-0.52-6.28c9.31,0,18.6,0,27.97,0c-0.13,1.54-0.25,3.07-0.39,4.61
				c-0.45,5.05-0.9,10.11-1.35,15.16c-0.24,2.72-0.5,5.43-0.7,8.15c-0.05,0.6-0.41,0.7-0.84,0.82c-3.41,0.94-6.83,1.89-10.24,2.84
				c-0.13,0.04-0.25,0.12-0.38,0.18C30.03,49.83,29.97,49.83,29.91,49.83z M25.07,27.38c1.32,0,2.49,0,3.66,0
				c3,0,5.99,0.01,8.99-0.02c0.27,0,0.75-0.23,0.78-0.4c0.15-1,0.2-2.02,0.28-3.06c-5.89,0-11.68,0-17.57,0
				c0.32,3.57,0.63,7.05,0.95,10.62c4.13,0,8.14,0,12.14,0c-0.11,1.35-0.23,2.61-0.31,3.86c-0.03,0.44-0.17,0.62-0.62,0.78
				c-2.13,0.79-4.25,1.01-6.39,0.08c-0.03-0.01-0.06-0.02-0.09-0.02c-0.67-0.07-0.91-0.43-0.88-1.11c0.03-0.6-0.11-1.21-0.18-1.84
				c-1.19,0-2.31,0-3.51,0c0.15,1.73,0.26,3.4,0.45,5.05c0.02,0.21,0.38,0.49,0.63,0.56c2.02,0.59,4.05,1.16,6.09,1.7
				c0.32,0.09,0.7,0.08,1.03-0.01c2.04-0.54,4.07-1.1,6.09-1.7c0.27-0.08,0.62-0.47,0.64-0.74c0.33-3.35,0.61-6.72,0.91-10.19
				c-4.27,0-8.51,0-12.78,0C25.26,29.72,25.17,28.62,25.07,27.38z"/>
			<path class="st1" d="M36.26,10.17c0,1.75,0,3.5,0,5.3c-0.6,0-1.12,0-1.71,0c0-0.75,0-1.49,0-2.24c-0.06-0.03-0.12-0.05-0.19-0.08
				c-0.34,0.5-0.68,1-1.1,1.61c-0.39-0.57-0.74-1.08-1.22-1.78c0,0.95,0,1.68,0,2.48c-0.62,0-1.16,0-1.78,0c0-1.79,0-3.54,0-5.29
				c0.65,0,1.29,0,1.94,0c0.33,0.61,0.67,1.22,1.05,1.92c0.48-0.75,0.86-1.34,1.24-1.92C35.08,10.17,35.67,10.17,36.26,10.17z"/>
			<path class="st1" d="M23.74,10.17c0,1.75,0,3.5,0,5.3c-0.57,0-1.09,0-1.68,0c-0.03-0.55-0.06-1.08-0.1-1.68
				c-0.51,0-0.99,0-1.53,0c-0.03,0.56-0.05,1.1-0.08,1.68c-0.57,0-1.08,0-1.72,0c0-1.77,0-3.53,0-5.3c0.59,0,1.18,0,1.76,0
				c0,0.57,0,1.14,0,1.72c0.59,0,1.09,0,1.59,0c0-0.62,0-1.17,0-1.72C22.57,10.17,23.15,10.17,23.74,10.17z"/>
			<path class="st1" d="M29.38,10.17c0.04,0.55,0.08,1.09,0.13,1.73c-0.54,0.03-0.99,0.06-1.58,0.1c0,1.14,0,2.29,0,3.48
				c-0.65,0-1.16,0-1.77,0c0-1.17,0-2.3,0-3.47c-0.55-0.03-1.01-0.05-1.54-0.08c0-0.6,0-1.17,0-1.75
				C26.21,10.17,27.8,10.17,29.38,10.17z"/>
			<path class="st1" d="M38.9,10.17c0,1.17,0,2.33,0,3.61c0.86,0,1.63,0,2.46,0c0,0.62,0,1.12,0,1.68c-1.4,0-2.75,0-4.23,0
				c0-1.8,0-3.55,0-5.3C37.73,10.17,38.31,10.17,38.9,10.17z"/>
		</g>
	</g>
</g>
</svg>
