<?xml version="1.0" encoding="utf-8"?>
<!-- Generator: Adobe Illustrator 23.0.1, SVG Export Plug-In . SVG Version: 6.00 Build 0)  -->
<svg version="1.1" id="Layer_1" xmlns="http://www.w3.org/2000/svg" 
xmlns:xlink="http://www.w3.org/1999/xlink" x="0px" y="0px"
	 viewBox="0 0 60.01 36" style="enable-background:new 0 0 60.01 36;" 
	 xml:space="preserve"
	 width="90" height="57">
<style type="text/css">
	.st0{fill:#24cbff;}
	.st1{fill:#97ebff;}
	.st2{fill:#d7f9ff;}
</style>
<g>
	<path class="st0" d="M25.67,12.64c-0.17-0.73-0.26-1.5-0.26-2.28C25.41,4.64,30.07,0,35.82,0c5.2,0,9.5,3.79,10.28,8.74
		c0.8-0.42,1.72-0.66,2.69-0.66c2.78,0,5.09,1.96,5.62,4.57c3.1,0.08,5.58,2.6,5.58,5.7c0,3.15-2.57,5.71-5.74,5.71H25.68
		c-3.17,0-5.74-2.56-5.74-5.71S22.5,12.65,25.67,12.64z"/>
	<path class="st1" d="M5.73,12.64c-0.17-0.73-0.26-1.5-0.26-2.28C5.47,4.64,10.13,0,15.88,0c5.2,0,9.5,3.79,10.28,8.74
		c0.8-0.42,1.72-0.66,2.69-0.66c2.78,0,5.09,1.96,5.62,4.57c3.1,0.08,5.58,2.6,5.58,5.7c0,3.15-2.57,5.71-5.74,5.71H5.74
		C2.57,24.06,0,21.5,0,18.35S2.56,12.65,5.73,12.64z"/>
	<path class="st2" d="M20.9,24.59c-0.17-0.73-0.26-1.5-0.26-2.28c0-5.72,4.66-10.36,10.41-10.36c5.2,0,9.5,3.79,10.28,8.74
		c0.8-0.42,1.72-0.66,2.69-0.66c2.78,0,5.09,1.96,5.62,4.57c3.1,0.08,5.58,2.6,5.58,5.7c0,3.15-2.57,5.71-5.74,5.71H20.91
		c-3.17,0-5.74-2.56-5.74-5.71S17.74,24.59,20.9,24.59z"/>
</g>
</svg>
