<?xml version="1.0" encoding="utf-8"?>
<!-- Generator: Adobe Illustrator 23.0.1, SVG Export Plug-In . SVG Version: 6.00 Build 0)  -->
<svg version="1.1" id="Layer_1" xmlns="http://www.w3.org/2000/svg" xmlns:xlink="http://www.w3.org/1999/xlink" x="0px" y="0px"
	 viewBox="0 0 60 60" style="enable-background:new 0 0 60 60;" xml:space="preserve">
<style type="text/css">
	.st0{fill:#FFFFFF;}
	.st1{fill:#E4CC5F;}
</style>
<circle class="st0" cx="30" cy="30" r="30"/>
<path class="st1" d="M51.03,40.52c-0.37,0.06-6.75,1.06-13.44,3.28H23.13c0.6-0.15,1.18-0.29,1.73-0.41h7.5
	c0.99,0,1.93-0.22,2.78-0.6l11.31-2.45c1.36,0,2.47-1.11,2.47-2.47V20.8c0-1.07-0.7-2-1.71-2.35c-3.38-1.17-6.56-3.94-8.38-5.74
	c-0.27-0.56-0.7-1.01-1.24-1.3c-0.19-0.22-0.31-0.35-0.31-0.35l-0.08,0.18c-0.3-0.11-0.62-0.18-0.96-0.18H18.47
	c-1.59,0-2.88,1.29-2.88,2.88v22.68c0,2.76,1.66,5.14,4.04,6.19c-3.7,1.06-7.81,2.5-11.24,4.4c-0.45,0.25-0.61,0.81-0.36,1.25
	c0.17,0.31,0.48,0.48,0.81,0.48c0.15,0,0.3-0.04,0.44-0.11c0.15-0.08,0.3-0.16,0.45-0.24c0.07,0.01,0.13,0.04,0.2,0.04h19.4
	c0.18,0.2,0.43,0.31,0.69,0.31c0.15,0,0.3-0.04,0.44-0.11c0.12-0.07,0.25-0.13,0.37-0.2h0.13c0.34,0,0.63-0.2,0.79-0.47
	c8.12-4.02,19.45-5.79,19.57-5.81c0.5-0.08,0.85-0.55,0.77-1.05S51.54,40.44,51.03,40.52z M16.75,45.64h16.01
	c-0.82,0.36-1.62,0.74-2.4,1.14H13.65C14.67,46.37,15.71,45.99,16.75,45.64z"/>
<g>
	<path class="st0" d="M17.43,26.29V14.03c0-0.62,0.5-1.13,1.13-1.13h16.25c0.62,0,1.13,0.5,1.13,1.13v12.25
		c0,0.62-0.5,1.13-1.13,1.13H18.56C17.94,27.41,17.43,26.91,17.43,26.29z"/>
</g>
<g>
	<circle class="st0" cx="20.43" cy="37.86" r="2.23"/>
</g>
<g>
	<circle class="st0" cx="33.19" cy="37.86" r="2.23"/>
</g>
<g>
	<path class="st0" d="M39.07,14.58l1.59,1.19c0.09,0.07,0.14,0.17,0.14,0.28v11.01c0,0.19-0.15,0.35-0.35,0.35h-1.74
		c-0.19,0-0.35-0.16-0.35-0.35l0.14-12.21C38.52,14.57,38.84,14.42,39.07,14.58z"/>
</g>
<g>
	<path class="st0" d="M42.23,16.82l1.59,1.1c0.09,0.06,0.15,0.17,0.15,0.28v8.87c0,0.19-0.15,0.35-0.35,0.35h-1.74
		c-0.19,0-0.35-0.16-0.35-0.35l0.14-9.97C41.7,16.82,42.01,16.66,42.23,16.82z"/>
</g>
<g>
	<path class="st0" d="M45.12,18.62l1.04,0.56c0.11,0.06,0.18,0.18,0.18,0.3v7.59c0,0.19-0.15,0.35-0.35,0.35h-1.15
		c-0.19,0-0.35-0.16-0.35-0.35l0.11-8.15C44.62,18.66,44.9,18.5,45.12,18.62z"/>
</g>
<g>
	<path class="st0" d="M47.99,27.41H47.2c-0.19,0-0.35-0.15-0.35-0.35V19.5l1.28,0.56c0.13,0.06,0.21,0.18,0.21,0.32v6.68
		C48.33,27.26,48.18,27.41,47.99,27.41z"/>
</g>
</svg>
