<?xml version="1.0" encoding="utf-8"?>
<!-- Generator: Adobe Illustrator 23.0.1, SVG Export Plug-In . SVG Version: 6.00 Build 0)  -->
<svg version="1.1" id="Layer_1" xmlns="http://www.w3.org/2000/svg" xmlns:xlink="http://www.w3.org/1999/xlink" x="0px" y="0px"
	 viewBox="0 0 130 60" style="enable-background:new 0 0 130 60;" 
	 xml:space="preserve"
	 width="65" height="30">
<style type="text/css">
	.st0{fill:#e4cc5f;}
</style>
<polygon class="st0" points="49,60 54.1,35.9 91,30 54.1,24.3 49,0 130,30 "/>
<path class="st0" d="M40.1,33H2.2c-1.5,0-2.7-1.2-2.7-2.7v-0.6c0-1.5,1.2-2.7,2.7-2.7h37.9c1.5,0,2.7,1.2,2.7,2.7v0.6
	C42.9,31.8,41.6,33,40.1,33z"/>
<path class="st0" d="M31.6,44.3H10.8c-1.5,0-2.7-1.2-2.7-2.7v-0.6c0-1.5,1.2-2.7,2.7-2.7h20.9c1.5,0,2.7,1.2,2.7,2.7v0.6
	C34.4,43.1,33.1,44.3,31.6,44.3z"/>
<path class="st0" d="M31.6,21.7H10.8c-1.5,0-2.7-1.2-2.7-2.7v-0.6c0-1.5,1.2-2.7,2.7-2.7h20.9c1.5,0,2.7,1.2,2.7,2.7v0.6
	C34.4,20.4,33.1,21.7,31.6,21.7z"/>
</svg>
