<?xml version="1.0" encoding="utf-8"?>
<!-- Generator: Adobe Illustrator 23.0.1, SVG Export Plug-In . SVG Version: 6.00 Build 0)  -->
<svg version="1.1" id="Layer_1" xmlns="http://www.w3.org/2000/svg" xmlns:xlink="http://www.w3.org/1999/xlink" x="0px" y="0px"
	 viewBox="0 0 60 60" style="enable-background:new 0 0 60 60;" xml:space="preserve">
<style type="text/css">
	.st0{fill:#E4CC5F;}
	.st1{fill:#FFFFFF;}
</style>
<circle class="st0" cx="30" cy="30" r="30"/>
<path class="st1" d="M43.94,26.01l-7.04,2.12l-17.74-8.67c-0.81-0.4-1.75-0.47-2.62-0.21l-1.42,0.43c-0.6,0.18-0.75,0.96-0.27,1.35
	L27.1,31.08l-8.6,2.59c-1.15,0.35-2.39,0.19-3.42-0.43l-7.43-2.65c-0.42-0.25-0.93-0.32-1.4-0.18l-0.56,0.17
	c-1.16,0.35-1.62,1.75-0.89,2.72l7.7,7.4c1.1,1.05,2.68,1.43,4.13,1l37.05-11.17c1.4-0.42,2.19-1.89,1.77-3.29
	C53.18,24.08,47.78,24.85,43.94,26.01z"/>
<path class="st1" d="M36.89,17.96c0.04-0.14,0.05-0.3,0.05-0.46c0-1.15-0.94-2.09-2.09-2.09c-1.04,0-1.9,0.77-2.06,1.76
	c-0.16-0.08-0.35-0.13-0.54-0.13c-0.55,0-1.02,0.4-1.13,0.92C30.49,17.99,30,18.5,30,19.13c0,0.64,0.52,1.15,1.15,1.15h5.74
	c0.64,0,1.15-0.52,1.15-1.15C38.03,18.48,37.51,17.96,36.89,17.96z"/>
<path class="st1" d="M40.93,20.37c0.04-0.14,0.05-0.3,0.05-0.46c0-1.15-0.94-2.09-2.09-2.09c-1.04,0-1.9,0.77-2.06,1.76
	c-0.16-0.08-0.35-0.13-0.54-0.13c-0.55,0-1.02,0.4-1.13,0.92c-0.62,0.01-1.12,0.53-1.12,1.15c0,0.64,0.52,1.15,1.15,1.15h5.73
	c0.64,0,1.15-0.52,1.15-1.15C42.08,20.88,41.56,20.37,40.93,20.37z"/>
<path class="st1" d="M38.05,40.18c0.04-0.14,0.05-0.3,0.05-0.46c0-1.15-0.94-2.09-2.09-2.09c-1.04,0-1.9,0.77-2.06,1.76
	c-0.16-0.08-0.35-0.13-0.54-0.13c-0.55,0-1.02,0.4-1.13,0.92c-0.62,0.01-1.12,0.53-1.12,1.15c0,0.64,0.52,1.15,1.15,1.15h5.74
	c0.64,0,1.15-0.52,1.15-1.15C39.19,40.69,38.68,40.18,38.05,40.18z"/>
</svg>
